<?xml version="1.0" encoding="utf-8"?>
<!-- Generator: Adobe Illustrator 15.1.0, SVG Export Plug-In . SVG Version: 6.00 Build 0)  -->
<!DOCTYPE svg PUBLIC "-//W3C//DTD SVG 1.1//EN" "http://www.w3.org/Graphics/SVG/1.1/DTD/svg11.dtd">
<svg version="1.1" id="Layer_1" xmlns="http://www.w3.org/2000/svg" xmlns:xlink="http://www.w3.org/1999/xlink" x="0px" y="0px"
	 width="200px" height="60.632px" viewBox="0 0 200 60.632" enable-background="new 0 0 200 60.632" xml:space="preserve">
<path fill="#FFFFFF" stroke="#000000" stroke-miterlimit="10" d="M-88.109,53.584"/>
<path fill="none" stroke="#FFFFFF" stroke-miterlimit="10" d="M178.5,41.132c0,1.104-0.896,2-2,2h-156c-1.104,0-2-0.896-2-2v-28
	c0-1.104,0.896-2,2-2h156c1.104,0,2,0.896,2,2V41.132z"/>
<path fill="none" stroke="#FFFFFF" stroke-miterlimit="10" d="M50.5,41.132c0,1.104-0.896,2-2,2h-28c-1.104,0-2-0.896-2-2v-28
	c0-1.104,0.896-2,2-2h28c1.104,0,2,0.896,2,2V41.132z"/>
<g>
	<path fill-rule="evenodd" clip-rule="evenodd" fill="#FFFFFF" d="M44.914,18.159c0,6.26,0,12.519,0,18.776
		c-0.196,1.333-1.869,1.016-3.552,1.016c-1.08,0-2.139,0.027-2.864-0.036c0-2.671,0-5.341,0-8.011c0.894,0,1.788,0,2.682,0
		c0.125-1.06,0.275-2.093,0.399-3.154c-1.027,0-2.054,0-3.081,0c0.154-1.208-0.357-2.686,0.399-3.262
		c0.612-0.468,1.725-0.161,2.791-0.254c0-0.942,0-1.885,0-2.827c-0.961-0.069-2.036-0.194-3.008-0.108
		c-2.973,0.262-3.787,2.854-3.479,6.451c-0.907,0-1.813,0-2.719,0c0.024,1.04-0.048,2.175,0.036,3.154
		c0.882,0.023,1.86-0.049,2.683,0.036c-0.024,2.657,0.048,5.413-0.037,8.011c-2.67,0-5.165,0-7.866,0
		c-0.84,0-1.94,0.159-2.537-0.109c-0.844-0.38-0.652-1.748-0.652-3.008c0-4.927,0-9.751,0-14.645c0-0.817-0.094-1.875,0.109-2.355
		c0.38-0.902,1.535-0.689,2.9-0.689c5.066,0,9.752,0,14.789,0C43.336,17.145,44.802,16.925,44.914,18.159z"/>
</g>
<rect x="61.625" y="23.132" fill="none" width="154.75" height="23.25"/>
<text transform="matrix(1 0 0 1 61.625 31.0293)" fill="#FFFFFF" font-family="'Helvetica'" font-size="11">Login with Facebook</text>
</svg>
